<svg width="62" height="22" viewBox="0 0 62 22" fill="none" xmlns="http://www.w3.org/2000/svg">
<g filter="url(#filter0_d)">
<path d="M14.335 0.368344C14.5567 0.368344 14.7375 0.444177 14.8775 0.595843C15.0292 0.735844 15.105 0.916677 15.105 1.13834C15.105 1.34834 15.0292 1.52918 14.8775 1.68084C14.7375 1.83251 14.5567 1.90834 14.335 1.90834H10.5725V12.4083C10.5725 12.63 10.4967 12.8167 10.345 12.9683C10.205 13.1083 10.0242 13.1783 9.8025 13.1783C9.5925 13.1783 9.41167 13.1083 9.26 12.9683C9.10833 12.8167 9.0325 12.63 9.0325 12.4083V1.90834H5.27C5.06 1.90834 4.87917 1.83251 4.7275 1.68084C4.57583 1.52918 4.5 1.34834 4.5 1.13834C4.5 0.916677 4.57583 0.735844 4.7275 0.595843C4.87917 0.444177 5.06 0.368344 5.27 0.368344H14.335Z" fill="#1F2041"/>
<path d="M20.9076 0.368344C21.7943 0.368344 22.6285 0.537511 23.4101 0.875844C24.2034 1.21418 24.8918 1.67501 25.4751 2.25834C26.0701 2.84168 26.5368 3.53001 26.8751 4.32334C27.2134 5.10501 27.3826 5.93918 27.3826 6.82584C27.3826 7.86418 27.1609 8.82084 26.7176 9.69584C26.2743 10.5708 25.6735 11.3058 24.9151 11.9008C24.9151 11.9008 24.9035 11.9125 24.8801 11.9358C24.3201 12.3558 23.7076 12.6883 23.0426 12.9333C22.3776 13.1667 21.6659 13.2833 20.9076 13.2833C20.0209 13.2833 19.1868 13.1142 18.4051 12.7758C17.6234 12.4375 16.9351 11.9767 16.3401 11.3933C15.7568 10.81 15.2959 10.1275 14.9576 9.34584C14.6193 8.56418 14.4501 7.72418 14.4501 6.82584C14.4501 5.84584 14.6484 4.94168 15.0451 4.11334C15.4418 3.27334 15.9843 2.55584 16.6726 1.96084L16.7426 1.89084C16.7543 1.89084 16.7718 1.87918 16.7951 1.85584C17.3551 1.38918 17.9851 1.02751 18.6851 0.770844C19.3851 0.502511 20.1259 0.368344 20.9076 0.368344ZM20.9076 11.7433C21.3509 11.7433 21.771 11.6908 22.1676 11.5858C22.576 11.4692 22.9609 11.3117 23.3226 11.1133L17.1801 3.64084C16.8068 4.07251 16.5151 4.56251 16.3051 5.11084C16.0951 5.64751 15.9901 6.21918 15.9901 6.82584C15.9901 7.50251 16.1185 8.13834 16.3751 8.73334C16.6318 9.32834 16.9818 9.85334 17.4251 10.3083C17.8801 10.7517 18.4051 11.1017 19.0001 11.3583C19.5951 11.615 20.2309 11.7433 20.9076 11.7433ZM24.5301 10.1508C24.9384 9.70751 25.2535 9.20584 25.4751 8.64584C25.7085 8.07418 25.8251 7.46751 25.8251 6.82584C25.8251 6.14918 25.6968 5.51334 25.4401 4.91834C25.1834 4.32334 24.8276 3.80418 24.3726 3.36084C23.9293 2.90584 23.4101 2.55001 22.8151 2.29334C22.2201 2.03668 21.5843 1.90834 20.9076 1.90834C20.4409 1.90834 19.9918 1.97251 19.5601 2.10084C19.1284 2.21751 18.7259 2.39251 18.3526 2.62584L24.5301 10.1508Z" fill="#1F2041"/>
<path d="M34.351 7.63084C34.1177 7.63084 33.9194 7.53751 33.756 7.35084L29.2585 1.57584C29.1302 1.41251 29.0777 1.23168 29.101 1.03334C29.1244 0.823344 29.2177 0.654177 29.381 0.525844C29.5444 0.39751 29.7252 0.350844 29.9235 0.385844C30.1335 0.409177 30.3027 0.50251 30.431 0.665843L34.351 5.67084L38.1835 0.753343C38.3119 0.59001 38.4752 0.496677 38.6735 0.473344C38.8835 0.450011 39.0702 0.502511 39.2335 0.630844C39.3969 0.759177 39.4902 0.928344 39.5135 1.13834C39.5369 1.33668 39.4844 1.51751 39.356 1.68084L34.946 7.35084C34.7944 7.53751 34.596 7.63084 34.351 7.63084ZM39.2685 13.2658C39.2219 13.2658 39.146 13.26 39.041 13.2483C38.9477 13.2367 38.8369 13.2075 38.7085 13.1608C38.5802 13.1025 38.4402 13.0267 38.2885 12.9333C38.1485 12.8283 38.0085 12.6883 37.8685 12.5133L34.351 7.98084L30.5185 12.9158C30.3902 13.0792 30.221 13.1725 30.011 13.1958C29.8127 13.2192 29.6319 13.1667 29.4685 13.0383C29.3052 12.91 29.2119 12.7467 29.1885 12.5483C29.1652 12.3383 29.2177 12.1517 29.346 11.9883L33.756 6.31834C33.896 6.13168 34.0885 6.03834 34.3335 6.03834C34.5902 6.03834 34.7944 6.13168 34.946 6.31834L39.041 11.5683C39.0994 11.65 39.1519 11.7025 39.1985 11.7258C39.2452 11.7492 39.2802 11.7667 39.3035 11.7783C39.5019 11.7783 39.6652 11.8483 39.7935 11.9883C39.9335 12.1167 40.0094 12.28 40.021 12.4783C40.0444 12.6883 39.986 12.8692 39.846 13.0208C39.706 13.1725 39.531 13.2542 39.321 13.2658H39.2685Z" fill="#1F2041"/>
<path d="M43.7343 13.2658C43.5126 13.2658 43.326 13.19 43.1743 13.0383C43.0226 12.8867 42.9468 12.7 42.9468 12.4783V1.10334C42.9468 0.893344 43.0226 0.71251 43.1743 0.560844C43.326 0.409177 43.5126 0.333344 43.7343 0.333344C43.9443 0.333344 44.1251 0.409177 44.2768 0.560844C44.4285 0.71251 44.5043 0.893344 44.5043 1.10334V12.4783C44.5043 12.7 44.4285 12.8867 44.2768 13.0383C44.1251 13.19 43.9443 13.2658 43.7343 13.2658Z" fill="#1F2041"/>
<path d="M56.9377 13.2308C56.681 13.2308 56.4827 13.1317 56.3427 12.9333L49.0452 3.34334V12.4783C49.0452 12.6883 48.9693 12.8692 48.8177 13.0208C48.6777 13.1608 48.5027 13.2308 48.2927 13.2308C48.0943 13.2308 47.9193 13.1608 47.7677 13.0208C47.616 12.8692 47.5402 12.6883 47.5402 12.4783V1.12084C47.5402 0.95751 47.5868 0.811677 47.6802 0.683344C47.7735 0.55501 47.9018 0.46751 48.0652 0.420843C48.2168 0.36251 48.3685 0.356677 48.5202 0.403344C48.6718 0.45001 48.8002 0.53751 48.9052 0.665843L56.1852 10.2733V1.12084C56.1852 0.92251 56.2552 0.74751 56.3952 0.595843C56.5468 0.444177 56.7277 0.368344 56.9377 0.368344C57.1477 0.368344 57.3227 0.444177 57.4627 0.595843C57.6143 0.74751 57.6902 0.92251 57.6902 1.12084V12.4783C57.6902 12.6417 57.6435 12.7875 57.5502 12.9158C57.4568 13.0442 57.3343 13.1375 57.1827 13.1958C57.066 13.2192 56.9843 13.2308 56.9377 13.2308Z" fill="#1F2041"/>
</g>
<defs>
<filter id="filter0_d" x="0.5" y="0.333344" width="61.1902" height="20.95" filterUnits="userSpaceOnUse" color-interpolation-filters="sRGB">
<feFlood flood-opacity="0" result="BackgroundImageFix"/>
<feColorMatrix in="SourceAlpha" type="matrix" values="0 0 0 0 0 0 0 0 0 0 0 0 0 0 0 0 0 0 127 0"/>
<feOffset dy="4"/>
<feGaussianBlur stdDeviation="2"/>
<feColorMatrix type="matrix" values="0 0 0 0 0 0 0 0 0 0 0 0 0 0 0 0 0 0 0.25 0"/>
<feBlend mode="normal" in2="BackgroundImageFix" result="effect1_dropShadow"/>
<feBlend mode="normal" in="SourceGraphic" in2="effect1_dropShadow" result="shape"/>
</filter>
</defs>
</svg>
